<?xml version="1.0" standalone="no"?>
<!DOCTYPE svg PUBLIC "-//W3C//DTD SVG 20010904//EN"
 "http://www.w3.org/TR/2001/REC-SVG-20010904/DTD/svg10.dtd">
<svg version="1.0" xmlns="http://www.w3.org/2000/svg"
 width="256.000000pt" height="119.000000pt" viewBox="0 0 256.000000 119.000000"
 preserveAspectRatio="xMidYMid meet">

<g transform="translate(0.000000,119.000000) scale(0.100000,-0.100000)"
fill="#000000" stroke="none">
<path d="M176 1128 c4 -7 27 -41 51 -74 24 -34 43 -68 43 -75 0 -8 -49 -199
-110 -424 -60 -226 -110 -418 -110 -427 0 -16 12 -18 104 -18 l104 0 11 33 c5
17 53 194 106 392 52 198 100 370 105 383 10 22 10 22 262 22 275 0 295 -4
312 -53 12 -32 -11 -136 -43 -196 -33 -65 -58 -76 -189 -79 -149 -3 -162 -6
-162 -36 0 -12 49 -123 110 -244 l109 -222 599 0 c669 0 653 -2 735 70 51 45
86 117 118 241 25 99 21 143 -16 187 l-24 29 45 37 c50 42 78 92 105 186 27
91 25 179 -3 215 -46 59 -52 60 -528 63 -410 3 -437 2 -451 -15 -19 -22 -191
-657 -183 -677 3 -8 15 -17 27 -20 40 -11 153 -6 169 6 10 8 39 98 73 228 31
118 61 230 66 248 l11 32 282 0 c310 0 326 -3 326 -58 0 -43 -38 -166 -55
-178 -9 -7 -37 -15 -63 -19 -103 -14 -101 -10 -31 -81 l64 -64 -23 -87 c-25
-96 -47 -128 -101 -144 -23 -6 -206 -9 -511 -7 l-475 3 -37 69 c-21 38 -38 72
-38 76 0 3 27 14 61 24 121 37 200 139 249 326 46 173 27 262 -66 310 l-48 25
-494 3 c-404 2 -492 1 -486 -10z"/>
</g>
</svg>
